<?xml version="1.0" encoding="UTF-8" standalone="no"?>
<!-- Generator: Adobe Illustrator 16.0.0, SVG Export Plug-In . SVG Version: 6.00 Build 0)  -->

<svg
   xmlns:dc="http://purl.org/dc/elements/1.1/"
   xmlns:cc="http://creativecommons.org/ns#"
   xmlns:rdf="http://www.w3.org/1999/02/22-rdf-syntax-ns#"
   xmlns:svg="http://www.w3.org/2000/svg"
   xmlns="http://www.w3.org/2000/svg"
   xmlns:sodipodi="http://sodipodi.sourceforge.net/DTD/sodipodi-0.dtd"
   xmlns:inkscape="http://www.inkscape.org/namespaces/inkscape"
   version="1.1"
   id="Layer_1"
   x="0px"
   y="0px"
   width="556.23822"
   height="386.32782"
   viewBox="0 0 556.23819 386.32781"
   enable-background="new 0 0 595.28 841.89"
   xml:space="preserve"
   inkscape:version="0.91 r13725"
   sodipodi:docname="black-screen.svg"><metadata
     id="metadata13"><rdf:RDF><cc:Work
         rdf:about=""><dc:format>image/svg+xml</dc:format><dc:type
           rdf:resource="http://purl.org/dc/dcmitype/StillImage" /><dc:title /></cc:Work></rdf:RDF></metadata><defs
     id="defs11" /><sodipodi:namedview
     pagecolor="#ffffff"
     bordercolor="#666666"
     borderopacity="1"
     objecttolerance="10"
     gridtolerance="10"
     guidetolerance="10"
     inkscape:pageopacity="0"
     inkscape:pageshadow="2"
     inkscape:window-width="1098"
     inkscape:window-height="692"
     id="namedview9"
     showgrid="false"
     fit-margin-top="0"
     fit-margin-left="0"
     fit-margin-right="0"
     fit-margin-bottom="0"
     inkscape:zoom="0.79286936"
     inkscape:cx="320.55815"
     inkscape:cy="124.32984"
     inkscape:window-x="226"
     inkscape:window-y="31"
     inkscape:window-maximized="0"
     inkscape:current-layer="Layer_1" /><path
     d="m 6.4056483,60.593409 c 2.069,-10.533 5.1359997,-20.889 8.1719997,-31.202 0.843,-2.865 3.001,-5.404 4.808,-7.911 4.403,-6.107 10.909,-8.48 17.999,-9.472 10.351,-1.449 20.717,-2.8080001 31.101,-4.0030001 8.466,-0.975 16.96,-1.745 25.456,-2.437 7.871002,-0.641 15.762002,-1.032 23.641002,-1.583 9.781,-0.684 19.553,-1.501 29.339,-2.101 4.907,-0.301 9.837,-0.254 14.757,-0.351 14.279,-0.279 28.557,-0.70199997 42.837,-0.79899997 47.766,-0.321 95.532,-0.571 143.299,-0.733 9.03,-0.031 18.063,0.457 27.094,0.73 8.466,0.256 16.932,0.47699997 25.392,0.83799997 11.817,0.504 23.636,1.034 35.444,1.72 11.216,0.652 22.438,1.334 33.627,2.34 12.725,1.144 25.441,2.449 38.106,4.099 7.029,0.9160001 14.101,2.1710001 20.877,4.1930001 7.577,2.262 11.487,9.012 14.146,15.676 4.017,10.063 6.91,20.504 8.71,31.195 l -544.8050017,-0.199 z"
     id="path3"
     inkscape:connector-curvature="0"
     style="clip-rule:evenodd;fill:#8dba73;fill-rule:evenodd" /><path
     d="m 550.91865,325.73341 c -2.068,10.534 -5.135,20.89 -8.171,31.203 -0.844,2.865 -3.002,5.404 -4.81,7.912 -4.402,6.106 -10.908,8.479 -17.998,9.47 -10.353,1.449 -20.719,2.809 -31.101,4.005 -8.468,0.975 -16.961,1.744 -25.458,2.435 -7.871,0.643 -15.762,1.033 -23.64,1.584 -9.781,0.686 -19.554,1.501 -29.339,2.101 -4.906,0.302 -9.837,0.255 -14.757,0.351 -14.279,0.278 -28.557,0.702 -42.837,0.798 -47.766,0.322 -95.532,0.572 -143.299,0.734 -9.03,0.031 -18.063,-0.457 -27.094,-0.73 -8.464,-0.255 -16.931,-0.478 -25.391,-0.838 -11.818,-0.503 -23.636,-1.033 -35.445,-1.721 -11.216,-0.651 -22.438002,-1.334 -33.627002,-2.34 -12.723,-1.144 -25.44,-2.447 -38.106,-4.098 -7.029,-0.916 -14.1,-2.172 -20.876,-4.194 -7.578,-2.26 -11.487,-9.011 -14.146,-15.677 -4.017,-10.062 -6.9109997,-20.503 -8.7099997,-31.193 l 544.8050017,0.198 z"
     id="path5"
     inkscape:connector-curvature="0"
     style="clip-rule:evenodd;fill:#8dba73;fill-rule:evenodd" /><path
     d="m 360.90665,372.12041 c -5.273,0 -12.642,-0.092 -20.006,0.021 -11.672,0.18 -23.341,0.536 -35.013,0.744 -16.258,0.291 -32.515,0.675 -48.773,0.711 -11.55,0.025 -23.104,-0.416 -34.654,-0.736 -4.44,-0.123 -8.871,-0.606 -13.312,-0.719 -14.661,-0.372 -29.328,-0.542 -43.985,-1.002 -10.156,-0.318 -20.302,-0.972 -30.451,-1.498 -9.567,-0.496 -19.14,-0.918 -28.697,-1.562 -10.446002,-0.708 -20.922002,-1.274 -31.306002,-2.55 -14.266,-1.753 -28.749,-2.434 -42.541,-7 -6.1,-2.02 -10.397,-6.577 -13.019,-12.146 -6.229,-13.231 -9.2899997,-27.444 -11.1869997,-41.854 -1.894,-14.395 -3.373,-28.847 -4.835,-43.294 -0.938,-9.281 -1.563,-18.593 -2.23199999,-27.897 -0.224,-3.121 -0.161,-6.263 -0.215,-9.396 -0.251,-14.425 -0.79,-28.852 -0.661,-43.274 0.12,-13.436 0.796,-26.875 1.52499999,-40.297 0.562,-10.346 1.266,-20.705 2.482,-30.99 1.448,-12.249001 3.067,-24.511001 5.443,-36.604001 2.0429997,-10.396 5.0699997,-20.617 8.0659997,-30.797 0.832,-2.827 2.962,-5.333 4.746,-7.808 4.346,-6.028 10.767,-8.37 17.766,-9.349 10.216,-1.43 20.448,-2.771 30.696,-3.951 8.357,-0.962 16.74,-1.722 25.125,-2.405 7.769002,-0.633 15.557002,-1.018 23.333002,-1.563 9.654,-0.675 19.299,-1.481 28.958,-2.073 4.844,-0.297 9.709,-0.251 14.565,-0.346 14.093,-0.275 28.186,-0.693 42.28,-0.788 47.145,-0.317 94.29,-0.564 141.436,-0.724 8.912,-0.03 17.828,0.451 26.741,0.721 8.354,0.253 16.71,0.471 25.061,0.827 11.665,0.498 23.33,1.021 34.984,1.698 11.071,0.643 22.146,1.316 33.188,2.309 12.559,1.128 25.11,2.417 37.613,4.046 6.938,0.904 13.914,2.143 20.604,4.139 7.479,2.232 11.337,8.895 13.963,15.472 4.995,12.516 8.23,25.621 9.763,39.068 1.657,14.545 3.305,29.092001 4.797,43.654001 0.916,8.932 1.949,17.883 2.198,26.846 0.566,20.305 0.901,40.623 0.885,60.935 -0.007,10.71 -0.879,21.423 -1.496,32.126 -0.427,7.392 -0.84,14.8 -1.699,22.148 -1.617,13.842 -3.639,27.636 -5.328,41.471 -1.341,10.976 -4.676,21.417 -7.918,31.91 -1.938,6.274 -5.459,11.751 -10.29,15.718 -3.287,2.699 -8.209,3.917 -12.593,4.664 -10.271,1.753 -20.634,3.029 -31,4.116 -10.409,1.091 -20.862,1.803 -31.308,2.526 -9.094,0.631 -18.202,1.082 -27.305,1.556 -10.373,0.543 -20.748,1.041 -31.125,1.523 -6.393,0.297 -12.788,0.501 -19.18,0.796 -4.668,0.216 -9.332,0.507 -16.089,0.878 z"
     id="path7"
     inkscape:connector-curvature="0"
     style="clip-rule:evenodd;fill:#00558e;fill-rule:evenodd;fill-opacity:1" /></svg>